# xmcd
#
# Track frame offsets:
#	150
#	12162
#	39615
#	63072
#	84135
#	103093
#	124994
#	156040
#	173950
#	191780
#	221498
#	246756
#	272686
#	290957
#	304169
#
# Disc length: 4231 seconds
#
# Revision: 0
# Processed by: cddbd v1.5.2PL0 Copyright (c) Steve Scherf et al.
# Submitted via: EasyCDDAExtractor 10.0.3.1
#
DISCID=d410850f
DTITLE=Tracy Conover - Retrospective 1991-2006
DYEAR=1900
DGENRE=
TTITLE0=Ironhorse
TTITLE1=Help Me Thru the Day 
TTITLE2=Garden of Color
TTITLE3=Escape
TTITLE4=There for Me
TTITLE5=My Big Rocker
TTITLE6=Ladykiller
TTITLE7=Tell Me
TTITLE8=Bye Bye Baby
TTITLE9=I Wanna be an Angel
TTITLE10=I Shoulda' Left You
TTITLE11=Loverman
TTITLE12=Carelessly
TTITLE13=Love is a Temporary Condition
TTITLE14=Loving and Longing
EXTD=
EXTT0=
EXTT1=
EXTT2=
EXTT3=
EXTT4=
EXTT5=
EXTT6=
EXTT7=
EXTT8=
EXTT9=
EXTT10=
EXTT11=
EXTT12=
EXTT13=
EXTT14=
PLAYORDER=
